PathFileType	4	(X/Y/Z)	41_2_39_p0_0-310.trc
DataRate	CameraRate	NumFrames	NumMarkers	Units	OrigDataRate	OrigDataStartFrame	OrigNumFrames
59.0	59.0	5	27	m	59.0	116	311
Frame#	Time	RHip			RKnee			RAnkle			RBigToe			RSmallToe			RHeel			LHip			LKnee			LAnkle			LBigToe			LSmallToe			LHeel			Neck			Head			Nose			RShoulder			RElbow			RWrist			RThumb			RIndex			RPinky			LShoulder			LElbow			LWrist			LThumb			LIndex			LPinky			
		X1	Y1	Z1	X2	Y2	Z2	X3	Y3	Z3	X4	Y4	Z4	X5	Y5	Z5	X6	Y6	Z6	X7	Y7	Z7	X8	Y8	Z8	X9	Y9	Z9	X10	Y10	Z10	X11	Y11	Z11	X12	Y12	Z12	X13	Y13	Z13	X14	Y14	Z14	X15	Y15	Z15	X16	Y16	Z16	X17	Y17	Z17	X18	Y18	Z18	X19	Y19	Z19	X20	Y20	Z20	X21	Y21	Z21	X22	Y22	Z22	X23	Y23	Z23	X24	Y24	Z24	X25	Y25	Z25	X26	Y26	Z26	X27	Y27	Z27	
116	1.9661016949152543	0.4120401324659951	0.5547241670660804	-0.020356590288658508	0.40106285957745924	0.6558688359797952	0.38447508934913655	0.3830868151400679	0.7499402509345273	0.7492604038085924	0.3599668989908739	0.5342340991953453	0.7456189559166151	0.4234442308558257	0.5670445990725297	0.7598080421355609	0.3621810267369846	0.8058833171512713	0.8025669894427665	0.21236132138840697	0.5356113750930788	-0.0292171357029086	0.19598820534574948	0.6257911624946788	0.36792085050884865	0.17431593412814225	0.7109837430216769	0.7284953910128354	0.1849666952385226	0.4960710891770407	0.7143326850032033	0.1379479171584249	0.5826544904649648	0.7480240961955571	0.18877623409097408	0.7415357687124716	0.7785666510916067	0.30258439073438786	0.5049205856992781	-0.5469114708479006	0.2905698259661481	0.4536964732129203	-0.7879928156283695	0.29439480422261194	0.3811417411108228	-0.6690378675483251	0.4758552347766432	0.5111191992931968	-0.4512789543835344	0.4999097204338693	0.5092014915876151	-0.24084349432862057	0.3920818471044997	0.3480210687735138	-0.1796089082180166	0.2915124781072874	0.334582303833932	-0.18649646160052105	0.28046584628254057	0.3386006735756717	-0.14500911192648444	0.2964523803893113	0.3527771662812751	-0.11598761415400541	0.16742069027490641	0.5034872351837867	-0.47647612782853194	0.11333389181786813	0.539964452164084	-0.2526010773447959	0.220618405224538	0.37770054645500023	-0.19117913916997684	0.28502127325791954	0.3358148388006588	-0.1977397372893203	0.29957201466682126	0.3288005190594035	-0.15278895113886695	0.2936894017595892	0.3512158261334344	-0.11659581375583898
117	1.9830508474576272	0.4120902274056557	0.5548633808693904	-0.020314447670643342	0.40111643883310366	0.6557350589052242	0.38432276330126847	0.37333265332448873	0.7336825977597995	0.7416249345145615	0.3558771051388748	0.5220953599043036	0.739097508968406	0.4193089047304225	0.5544596679452107	0.7532436014317686	0.3626412811715057	0.8071183527150935	0.7929874773216712	0.21246192583640244	0.5356968547007336	-0.029209031619184405	0.20059540801255837	0.6262517493301041	0.3677243402759646	0.17517471799799572	0.7102465154670756	0.7236065927064647	0.18498119364065074	0.4960837060535049	0.714287272717174	0.13836192062465344	0.5811391255933123	0.7515318303023169	0.18977617227538027	0.7408718592176188	0.7729854483936822	0.3026861625264285	0.5050056381729148	-0.5469954497587871	0.2947123878375459	0.46503959925766836	-0.7881882358999622	0.2945021945004697	0.3812438947350723	-0.669136724947748	0.47588818953403106	0.5112824886850361	-0.45128638753214173	0.49770328752980947	0.5231319518082398	-0.23795884514268786	0.3919450665466405	0.3488100490012722	-0.18329022741179654	0.2948449449559225	0.33646927619046385	-0.18938039335049708	0.2842620019157775	0.3389324864852772	-0.145287725441556	0.2965786356345321	0.353068237145086	-0.11598395154997419	0.16745400927780377	0.5034906944869632	-0.4765058728103383	0.1133275162496511	0.5403804359966563	-0.2524852394246448	0.21733682896528989	0.3901751374139562	-0.18837407520891244	0.28504004709483244	0.33581480021407073	-0.19802933231558503	0.29951985288372907	0.3290394369908261	-0.15300198684090888	0.2938370530349558	0.35119307362047636	-0.11670976807980105
118	2.0	0.41235440596866024	0.5541169858953339	-0.016631375528271593	0.4011327256252721	0.6558273061080268	0.38434439388278424	0.38306522149984173	0.7500029350216533	0.7493017961277484	0.3600949755457322	0.5346866239568683	0.7456374261850712	0.4236477507357331	0.5677664207765432	0.7600594113323907	0.36218338932670313	0.8060080776453538	0.8026043197780303	0.21241177083318818	0.5358848639562265	-0.0292460037912928	0.2005878015553615	0.6260501613589158	0.3676304114063131	0.17524385084867367	0.7102235437820552	0.7236552834336186	0.1849719728487553	0.49613322885795863	0.7143376484887131	0.1383897629154255	0.5812153050362938	0.7516007919022324	0.18970825389654236	0.7406439228115711	0.7731697348421503	0.29922348515115094	0.5181707611543613	-0.5492516339934792	0.29414131955968176	0.4411830998025327	-0.7883162128371318	0.2946225029672254	0.38111866251296717	-0.6690028744150932	0.47355174208328465	0.5254270535028457	-0.4493861168190112	0.5023566893476307	0.5352805436254494	-0.23581368356991012	0.39193256691757955	0.3488094851893078	-0.18328883402696167	0.29413074441107456	0.33533328936191026	-0.19369569708897078	0.2808037134429408	0.3386842109429883	-0.14566084506962726	0.29638881552343604	0.35258382093993246	-0.11622577651308082	0.16742987986465357	0.5034253057469918	-0.4765020478118341	0.1132406390649878	0.5406868584088141	-0.2524469740880699	0.2172378411428173	0.3900353184525206	-0.1885554736869732	0.28469494039026166	0.3360631482116399	-0.20147302145688836	0.29950274429665164	0.32920877148181493	-0.15301177925970433	0.2936925470744382	0.3509739980903337	-0.11686308034586218
119	2.016949152542373	0.4121057440982517	0.5549870007506005	-0.02036751045771399	0.40118289186516104	0.6558106574975113	0.3843071996743066	0.37818668617018986	0.7348475745437187	0.7421312890753857	0.3602248018383227	0.5350728451196388	0.7455122095335343	0.4194216588511038	0.5558128915765044	0.7539411505747297	0.36221116227416245	0.8060050988760525	0.802581640759222	0.2160917796749571	0.548159404125278	-0.026329026049111637	0.2006463349541887	0.6260088429857019	0.3676431732484086	0.17526106466871022	0.7103074446174344	0.7237471932066664	0.1849061858338608	0.49606818724192603	0.714244100620239	0.13832704159408668	0.5813096910285808	0.7515932346839448	0.1897780808970632	0.7408715575226754	0.7732247778876715	0.29921281128057403	0.5181168856645325	-0.5492613823092574	0.301868684568863	0.45272814776634107	-0.7887083864210581	0.29468879406726783	0.38100017533577785	-0.6689831134332025	0.47352993302732366	0.5254368061027276	-0.44936369244069796	0.5024132830896462	0.535193253767479	-0.23579162634961723	0.39198915937200746	0.3487538096436589	-0.18336265343168492	0.29409535955245847	0.33537922779003215	-0.19362444541695376	0.28086686904217883	0.3388070041008656	-0.14577956692354332	0.2995719617388395	0.3411157498892346	-0.11918351425713755	0.1674271718788449	0.5033949248515678	-0.4764376957020925	0.11315272032213691	0.5403397398460145	-0.2525222687130249	0.21737286158952415	0.3902768374974648	-0.18841866605713667	0.2814915199745637	0.3481693611521386	-0.19840544944293703	0.2994432437130358	0.3289022635624867	-0.15303116724998292	0.2938175091615544	0.35059543893093326	-0.11701233444375263
120	2.0338983050847457	0.412375013410261	0.5542479281552996	-0.01665262543297313	0.4011775812112781	0.6557049319072942	0.3844012552007214	0.3732318801724696	0.7199317282525675	0.7349252269190679	0.36035390188227506	0.5348757883796017	0.7452199229917936	0.4199328111962486	0.5557055636648102	0.7535165104234107	0.3569755260712631	0.7925201717586816	0.7908255997772087	0.2124238637897614	0.5361706702155414	-0.029219621133950966	0.20076436096406844	0.6261008164336921	0.3676360404018737	0.17840397916017067	0.6951767672027145	0.7206090098687855	0.18488715142127074	0.49602166450648444	0.7144008979263796	0.13830984496422696	0.5815590953842827	0.7518257302248302	0.18880710308304674	0.7407676171514144	0.778159148288462	0.3027309337906173	0.5050377921879233	-0.5469578635617908	0.30564884327830694	0.45317397937896986	-0.7888635510381127	0.2987786261492721	0.3822525206118912	-0.6691665200857074	0.4759264047994931	0.511318329620528	-0.4511773380004683	0.502610152710231	0.5354549154566848	-0.23563922824367714	0.3914155607450572	0.34799032013164677	-0.1872333504075087	0.290647556879	0.33434961531271584	-0.1938462976440925	0.2809076010277631	0.33869522317105477	-0.14567827425299085	0.3036413781033329	0.34136965446437045	-0.11591122327415294	0.16742759013758127	0.5033722883175764	-0.47638963519335337	0.11323124566200081	0.539701270134384	-0.2527318753375693	0.2205838782750085	0.3777501238599165	-0.19123626918385825	0.2884404426391989	0.3360051485352482	-0.2017388510736723	0.299643814732522	0.32836352091138	-0.15305921224808594	0.2969674062200348	0.33866027880203975	-0.1201738779004013
